<?xml version="1.0" encoding="UTF-8" standalone="no"?>
<!DOCTYPE svg PUBLIC "-//W3C//DTD SVG 1.1//EN" "http://www.w3.org/Graphics/SVG/1.1/DTD/svg11.dtd">
<svg width="100%" height="100%" viewBox="0 0 905 280" version="1.1" xmlns="http://www.w3.org/2000/svg" xmlns:xlink="http://www.w3.org/1999/xlink" xml:space="preserve" xmlns:serif="http://www.serif.com/" style="fill-rule:evenodd;clip-rule:evenodd;stroke-linejoin:round;stroke-miterlimit:2;">
    <g transform="matrix(4.16667,0,0,4.16667,0,0)">
        <path d="M26.136,25.964C26.424,25.964 26.424,25.792 26.366,25.56L20.89,9.992C20.601,9.128 20.313,9.128 20.024,9.992L14.95,25.56C14.835,25.849 14.95,25.964 15.124,25.964L26.136,25.964ZM20.14,2.899C20.831,0.997 21.063,0.651 21.408,0.651C21.754,0.651 21.985,0.939 22.676,2.728C23.541,4.918 32.594,28.732 36.111,37.496C38.186,42.627 39.859,43.55 41.069,43.896C41.934,44.184 42.799,44.242 43.376,44.242C43.722,44.242 43.953,44.299 43.953,44.587C43.953,44.933 43.433,45.048 42.799,45.048C41.934,45.048 37.725,45.048 33.747,44.933C32.651,44.877 32.017,44.877 32.017,44.531C32.017,44.299 32.19,44.184 32.42,44.127C32.766,44.011 33.113,43.493 32.766,42.57L27.405,28.386C27.289,28.156 27.174,28.04 26.885,28.04L14.489,28.04C14.201,28.04 14.028,28.212 13.912,28.502L10.453,38.707C9.934,40.148 9.646,41.532 9.646,42.57C9.646,43.723 10.856,44.242 11.837,44.242L12.413,44.242C12.817,44.242 12.989,44.357 12.989,44.587C12.989,44.933 12.645,45.048 12.125,45.048C10.741,45.048 8.263,44.877 7.628,44.877C6.993,44.877 3.822,45.048 1.112,45.048C0.363,45.048 0.017,44.933 0.017,44.587C0.017,44.357 0.247,44.242 0.535,44.242C0.939,44.242 1.747,44.184 2.208,44.127C4.86,43.781 6.013,41.589 7.052,38.707L20.14,2.899Z" style="fill:rgb(14,0,79);fill-rule:nonzero;"/>
        <path d="M55.296,29.916C55.296,37.648 55.506,41.014 56.454,41.96C57.295,42.802 58.663,43.17 62.766,43.17C65.553,43.17 67.868,43.118 69.13,41.592C69.815,40.752 70.34,39.435 70.499,38.437C70.551,38.016 70.656,37.753 70.971,37.753C71.235,37.753 71.288,37.962 71.288,38.542C71.288,39.121 70.918,42.277 70.499,43.802C70.13,45.011 69.972,45.222 67.184,45.222C59.61,45.222 56.138,44.907 53.086,44.907C52.614,44.907 49.51,45.064 47.932,45.064C47.354,45.064 47.09,44.959 47.09,44.643C47.09,44.486 47.196,44.328 47.511,44.328C47.985,44.328 48.616,44.222 49.089,44.118C50.141,43.907 50.405,42.75 50.615,41.224C50.877,39.015 50.877,34.86 50.877,29.81L50.877,20.552C50.877,12.346 50.877,10.872 50.772,9.189C50.668,7.401 50.247,6.56 48.51,6.191C48.09,6.086 47.196,6.033 46.722,6.033C46.512,6.033 46.301,5.928 46.301,5.718C46.301,5.402 46.564,5.297 47.143,5.297C49.51,5.297 52.824,5.454 53.086,5.454C53.35,5.454 57.19,5.297 58.768,5.297C59.347,5.297 59.61,5.402 59.61,5.718C59.61,5.928 59.399,6.033 59.189,6.033C58.821,6.033 58.085,6.086 57.453,6.191C55.927,6.454 55.506,7.349 55.402,9.189C55.296,10.872 55.296,12.346 55.296,20.552L55.296,29.916Z" style="fill:rgb(14,0,79);fill-rule:nonzero;"/>
        <path d="M80.259,20.552C80.259,12.346 80.259,10.872 80.154,9.189C80.049,7.401 79.627,6.56 77.892,6.191C77.471,6.086 76.577,6.033 76.103,6.033C75.893,6.033 75.683,5.928 75.683,5.718C75.683,5.402 75.946,5.297 76.524,5.297C78.891,5.297 82.206,5.454 82.468,5.454C82.836,5.454 93.304,5.454 94.514,5.402C95.514,5.35 96.355,5.244 96.775,5.14C97.039,5.087 97.249,4.876 97.512,4.876C97.67,4.876 97.723,5.087 97.723,5.35C97.723,5.718 97.459,6.349 97.302,7.821C97.249,8.348 97.145,10.662 97.039,11.294C96.986,11.557 96.881,11.872 96.67,11.872C96.355,11.872 96.25,11.609 96.25,11.189C96.25,10.82 96.197,9.926 95.934,9.294C95.566,8.453 95.04,7.821 92.199,7.507C91.305,7.401 85.571,7.349 84.992,7.349C84.782,7.349 84.678,7.507 84.678,7.874L84.678,22.393C84.678,22.761 84.73,22.919 84.992,22.919C85.677,22.919 92.147,22.919 93.356,22.814C94.619,22.709 95.356,22.603 95.829,22.078C96.197,21.657 96.407,21.394 96.618,21.394C96.775,21.394 96.881,21.499 96.881,21.814C96.881,22.13 96.618,23.024 96.46,24.76C96.355,25.812 96.25,27.758 96.25,28.127C96.25,28.547 96.25,29.127 95.881,29.127C95.619,29.127 95.514,28.916 95.514,28.653C95.514,28.127 95.514,27.6 95.303,26.918C95.093,26.18 94.619,25.286 92.567,25.076C91.147,24.918 85.939,24.812 85.046,24.812C84.782,24.812 84.678,24.97 84.678,25.181L84.678,29.81C84.678,31.598 84.625,37.7 84.678,38.805C84.835,42.434 85.624,43.118 90.779,43.118C92.147,43.118 94.461,43.118 95.829,42.54C97.196,41.96 97.827,40.909 98.195,38.752C98.301,38.173 98.406,37.962 98.67,37.962C98.984,37.962 98.984,38.384 98.984,38.752C98.984,39.173 98.564,42.75 98.301,43.854C97.933,45.222 97.512,45.222 95.46,45.222C87.518,45.222 83.993,44.907 82.468,44.907C82.206,44.907 78.891,45.064 77.313,45.064C76.735,45.064 76.472,44.959 76.472,44.643C76.472,44.486 76.577,44.328 76.893,44.328C77.366,44.328 77.998,44.222 78.47,44.118C79.523,43.907 79.786,42.75 79.997,41.224C80.259,39.015 80.259,34.86 80.259,29.81L80.259,20.552Z" style="fill:rgb(14,0,79);fill-rule:nonzero;"/>
        <path d="M164.576,42.802C170.099,42.802 171.783,41.803 172.886,40.224C173.361,39.542 173.834,38.121 173.939,37.384C174.044,36.858 174.15,36.543 174.412,36.543C174.728,36.543 174.834,36.753 174.834,37.753C174.834,39.383 174.097,42.488 173.781,43.802C173.466,45.064 173.412,45.169 172.203,45.169C163.418,45.169 154.582,44.907 145.377,44.907C144.744,44.907 144.429,44.854 144.429,44.486C144.429,44.222 144.535,43.96 145.166,43.013C153.002,31.177 160.947,19.342 168.257,7.453L156.843,7.453C154.162,7.453 150.951,7.611 149.269,8.505C147.375,9.505 146.427,11.451 146.271,12.661C146.166,13.45 145.955,13.608 145.691,13.608C145.429,13.608 145.377,13.345 145.377,12.924C145.377,12.293 146.166,7.507 146.427,5.928C146.533,5.191 146.638,4.929 146.955,4.929C147.427,4.929 147.744,5.244 149.164,5.297C154.162,5.507 156.685,5.454 158.316,5.454L172.992,5.454C173.781,5.454 174.044,5.56 174.044,5.876C174.044,6.086 174.044,6.191 173.834,6.507C166.207,18.605 158.263,30.705 150.267,42.802L164.576,42.802Z" style="fill:rgb(14,0,79);fill-rule:nonzero;"/>
        <path d="M199.761,27.654C200.025,27.654 200.025,27.496 199.972,27.285L194.976,13.082C194.712,12.293 194.449,12.293 194.187,13.082L189.558,27.285C189.453,27.547 189.558,27.654 189.714,27.654L199.761,27.654ZM194.293,6.612C194.923,4.876 195.132,4.561 195.449,4.561C195.765,4.561 195.974,4.823 196.607,6.454C197.396,8.453 205.654,30.178 208.863,38.173C210.755,42.855 212.281,43.697 213.386,44.013C214.175,44.275 214.964,44.328 215.49,44.328C215.806,44.328 216.017,44.38 216.017,44.643C216.017,44.959 215.543,45.064 214.964,45.064C214.175,45.064 210.335,45.064 206.705,44.959C205.707,44.907 205.127,44.907 205.127,44.591C205.127,44.38 205.285,44.275 205.496,44.222C205.812,44.118 206.127,43.644 205.812,42.802L200.919,29.863C200.814,29.652 200.709,29.546 200.447,29.546L189.136,29.546C188.875,29.546 188.716,29.705 188.611,29.968L185.455,39.278C184.982,40.593 184.718,41.856 184.718,42.802C184.718,43.854 185.824,44.328 186.716,44.328L187.244,44.328C187.611,44.328 187.769,44.433 187.769,44.643C187.769,44.959 187.455,45.064 186.98,45.064C185.716,45.064 183.457,44.907 182.877,44.907C182.298,44.907 179.406,45.064 176.933,45.064C176.25,45.064 175.933,44.959 175.933,44.643C175.933,44.433 176.144,44.328 176.408,44.328C176.775,44.328 177.511,44.275 177.933,44.222C180.351,43.907 181.404,41.908 182.351,39.278L194.293,6.612Z" style="fill:rgb(14,0,79);fill-rule:nonzero;"/>
        <path d="M120.627,16.508C119.136,13.903 117.779,11.413 116.402,8.821C116.085,8.242 115.875,7.611 115.875,7.085C115.875,6.717 116.033,6.349 116.505,6.191C116.927,6.033 117.611,6.033 117.927,6.033C118.242,6.033 118.4,5.928 118.4,5.665C118.4,5.402 118.242,5.297 117.505,5.297C115.716,5.297 113.035,5.454 112.562,5.454C112.14,5.454 107.881,5.297 106.407,5.297C105.724,5.297 105.513,5.402 105.513,5.665C105.513,5.876 105.672,6.033 105.986,6.033C106.303,6.033 107.354,6.139 108.196,6.401C109.984,7.033 111.089,8.559 112.298,10.61L117.078,18.646C118.035,17.641 119.253,16.893 120.627,16.508Z" style="fill:rgb(14,0,79);fill-rule:nonzero;"/>
        <path d="M133.287,10.558C134.812,8.295 135.812,6.77 137.337,6.296C137.916,6.086 138.705,6.033 139.072,6.033C139.441,6.033 139.65,5.876 139.65,5.665C139.65,5.454 139.388,5.297 138.81,5.297C137.021,5.297 134.865,5.454 134.39,5.454C133.918,5.454 131.709,5.297 129.709,5.297C129.078,5.297 128.816,5.454 128.816,5.665C128.816,5.928 128.974,6.033 129.289,6.033C129.605,6.033 130.341,6.033 130.867,6.191C131.392,6.349 131.761,6.77 131.761,7.138C131.761,7.769 131.603,8.242 131.234,9.032C130.896,9.743 128.439,13.73 126.312,17.082C126.968,17.42 127.57,17.849 128.101,18.352L133.287,10.558Z" style="fill:rgb(14,0,79);fill-rule:nonzero;"/>
        <path d="M111.193,39.804C109.459,42.488 108.407,43.644 106.828,44.065C106.039,44.275 105.25,44.328 104.829,44.328C104.566,44.328 104.408,44.486 104.408,44.696C104.408,44.907 104.514,45.064 104.935,45.064C106.67,45.064 109.248,44.907 109.72,44.907C110.195,44.907 113.509,45.064 114.771,45.064C115.138,45.064 115.402,44.959 115.402,44.696C115.402,44.486 115.244,44.328 114.982,44.328C114.718,44.328 114.296,44.275 113.982,44.222C113.509,44.118 113.14,43.75 113.14,43.223C113.14,42.697 113.351,41.751 113.824,40.909L119.558,31.168C118.802,30.831 118.113,30.376 117.507,29.828L111.193,39.804Z" style="fill:rgb(14,0,79);fill-rule:nonzero;"/>
        <path d="M140.861,44.328C140.544,44.328 139.755,44.222 139.021,44.013C137.494,43.539 136.759,42.75 135.916,41.645C135.222,40.753 131.419,34.388 128.437,29.371C127.453,30.42 126.183,31.195 124.75,31.577C126.939,35.304 129.062,38.989 131.078,42.645C131.55,43.486 131.078,44.013 130.814,44.118C130.603,44.169 130.498,44.328 130.498,44.539C130.498,44.801 130.761,44.854 132.128,44.959C134.812,45.011 137.337,45.064 140.544,45.064C141.019,45.064 141.283,44.907 141.283,44.643C141.283,44.433 141.123,44.328 140.861,44.328Z" style="fill:rgb(14,0,79);fill-rule:nonzero;"/>
        <path d="M1.429,59.714C1.429,57.675 1.429,57.306 1.397,56.89C1.367,56.441 1.29,56.226 0.843,56.164C0.734,56.148 0.503,56.132 0.379,56.132C0.333,56.132 0.272,56.072 0.272,56.025C0.272,55.949 0.333,55.918 0.487,55.918C1.105,55.918 1.953,55.949 2.062,55.949C2.355,55.949 3.373,55.918 3.991,55.918C5.735,55.918 6.353,56.457 6.583,56.658C6.893,56.937 7.263,57.523 7.263,58.232C7.263,60.115 5.843,61.365 3.76,61.365C3.683,61.365 3.45,61.365 3.373,61.351C3.312,61.351 3.234,61.289 3.234,61.226C3.234,61.119 3.312,61.087 3.589,61.087C5.056,61.087 6.106,60.162 6.106,58.972C6.106,58.541 6.06,57.691 5.333,56.982C4.624,56.273 3.806,56.349 3.497,56.349C3.266,56.349 2.88,56.412 2.741,56.441C2.663,56.457 2.633,56.55 2.633,56.689L2.633,62.029C2.633,63.294 2.633,64.33 2.694,64.869C2.741,65.255 2.817,65.503 3.234,65.564C3.42,65.593 3.713,65.625 3.837,65.625C3.914,65.625 3.944,65.687 3.944,65.734C3.944,65.795 3.883,65.842 3.729,65.842C2.987,65.842 2.093,65.795 2.03,65.795C1.984,65.795 1.105,65.842 0.689,65.842C0.549,65.842 0.472,65.813 0.472,65.734C0.472,65.687 0.503,65.625 0.58,65.625C0.703,65.625 0.873,65.593 0.997,65.564C1.259,65.503 1.29,65.255 1.352,64.869C1.429,64.33 1.429,63.294 1.429,62.029L1.429,59.714Z" style="fill:rgb(234,126,29);fill-rule:nonzero;"/>
        <path d="M23.42,62.029C23.42,63.294 23.435,64.33 23.497,64.869C23.543,65.255 23.575,65.503 23.991,65.564C24.176,65.593 24.485,65.625 24.593,65.625C24.685,65.625 24.716,65.687 24.716,65.734C24.716,65.795 24.639,65.842 24.485,65.842C23.744,65.842 22.879,65.795 22.802,65.795C22.741,65.795 21.861,65.842 21.46,65.842C21.306,65.842 21.243,65.813 21.243,65.734C21.243,65.687 21.274,65.625 21.352,65.625C21.476,65.625 21.63,65.593 21.753,65.564C22.031,65.503 22.077,65.24 22.124,64.853C22.186,64.312 22.186,63.326 22.186,62.06L22.186,60.748C22.186,60.687 22.155,60.671 22.108,60.671L16.444,60.671C16.397,60.671 16.367,60.687 16.367,60.748L16.367,62.06C16.367,63.326 16.367,64.33 16.429,64.869C16.475,65.255 16.522,65.503 16.922,65.564C17.123,65.593 17.416,65.625 17.54,65.625C17.617,65.625 17.647,65.687 17.647,65.734C17.647,65.795 17.586,65.842 17.432,65.842C16.676,65.842 15.812,65.795 15.749,65.795C15.672,65.795 14.808,65.842 14.392,65.842C14.253,65.842 14.175,65.813 14.175,65.734C14.175,65.687 14.206,65.625 14.283,65.625C14.407,65.625 14.576,65.593 14.7,65.564C14.962,65.503 14.993,65.255 15.055,64.869C15.132,64.33 15.132,63.294 15.132,62.029L15.132,59.714C15.132,57.675 15.132,57.306 15.101,56.89C15.07,56.441 14.993,56.226 14.546,56.164C14.438,56.148 14.206,56.132 14.083,56.132C14.036,56.132 13.975,56.072 13.975,56.025C13.975,55.949 14.036,55.918 14.19,55.918C14.808,55.918 15.672,55.949 15.749,55.949C15.812,55.949 16.676,55.918 17.093,55.918C17.247,55.918 17.309,55.949 17.309,56.025C17.309,56.072 17.247,56.132 17.2,56.132C17.107,56.132 17.015,56.132 16.86,56.164C16.49,56.242 16.413,56.425 16.382,56.89C16.367,57.306 16.367,57.707 16.367,59.746L16.367,60.023C16.367,60.101 16.397,60.101 16.444,60.101L22.108,60.101C22.155,60.101 22.186,60.101 22.186,60.023L22.186,59.746C22.186,57.707 22.17,57.306 22.155,56.89C22.124,56.441 22.062,56.226 21.614,56.164C21.506,56.148 21.274,56.132 21.151,56.132C21.089,56.132 21.044,56.072 21.044,56.025C21.044,55.949 21.106,55.918 21.26,55.918C21.861,55.918 22.741,55.949 22.802,55.949C22.879,55.949 23.744,55.918 24.145,55.918C24.299,55.918 24.377,55.949 24.377,56.025C24.377,56.072 24.315,56.132 24.253,56.132C24.161,56.132 24.084,56.132 23.914,56.164C23.559,56.242 23.482,56.425 23.451,56.89C23.42,57.306 23.42,57.675 23.42,59.714L23.42,62.029Z" style="fill:rgb(234,126,29);fill-rule:nonzero;"/>
        <path d="M36.689,61.644C36.751,61.644 36.751,61.613 36.735,61.55L35.393,57.955C35.315,57.753 35.239,57.753 35.161,57.955L33.895,61.55C33.879,61.613 33.895,61.644 33.942,61.644L36.689,61.644ZM35.176,56.179C35.346,55.748 35.408,55.669 35.501,55.669C35.639,55.669 35.686,55.855 35.825,56.148C36.072,56.703 38.247,62.121 39.081,64.113C39.575,65.285 39.946,65.457 40.239,65.548C40.44,65.609 40.64,65.625 40.779,65.625C40.856,65.625 40.949,65.656 40.949,65.734C40.949,65.813 40.794,65.842 40.64,65.842C40.44,65.842 39.436,65.842 38.495,65.813C38.233,65.795 38.016,65.795 38.016,65.718C38.016,65.656 38.047,65.656 38.109,65.625C38.186,65.593 38.325,65.486 38.233,65.269L37.013,62.261C36.983,62.199 36.966,62.183 36.889,62.183L33.756,62.183C33.695,62.183 33.649,62.214 33.618,62.293L32.846,64.39C32.722,64.714 32.645,65.039 32.645,65.269C32.645,65.533 32.877,65.625 33.108,65.625L33.232,65.625C33.339,65.625 33.371,65.671 33.371,65.734C33.371,65.813 33.293,65.842 33.169,65.842C32.846,65.842 32.105,65.795 31.951,65.795C31.811,65.795 31.132,65.842 30.577,65.842C30.407,65.842 30.315,65.813 30.315,65.734C30.315,65.671 30.377,65.625 30.438,65.625C30.531,65.625 30.731,65.609 30.839,65.593C31.457,65.517 31.719,65.054 31.981,64.39L35.176,56.179Z" style="fill:rgb(234,126,29);fill-rule:nonzero;"/>
        <path d="M49.132,60.824C49.132,60.902 49.163,60.949 49.225,60.996C49.425,61.103 50.12,61.195 50.721,61.195C51.046,61.195 51.417,61.179 51.741,60.964C52.204,60.656 52.559,59.96 52.559,58.957C52.559,57.322 51.664,56.38 50.213,56.38C49.811,56.38 49.379,56.425 49.241,56.457C49.178,56.488 49.132,56.535 49.132,56.613L49.132,60.824ZM47.96,59.714C47.96,57.675 47.96,57.306 47.928,56.89C47.898,56.441 47.82,56.226 47.373,56.164C47.264,56.148 47.034,56.132 46.91,56.132C46.863,56.132 46.801,56.072 46.801,56.025C46.801,55.949 46.863,55.918 47.018,55.918C47.635,55.918 48.545,55.949 48.624,55.949C48.762,55.949 49.904,55.918 50.321,55.918C51.185,55.918 52.142,55.996 52.852,56.488C53.191,56.734 53.793,57.367 53.793,58.279C53.793,59.252 53.392,60.191 52.127,61.273C53.238,62.662 54.179,63.851 54.966,64.668C55.692,65.41 56.139,65.533 56.479,65.58C56.742,65.625 56.88,65.625 56.958,65.625C57.035,65.625 57.081,65.687 57.081,65.734C57.081,65.813 57.004,65.842 56.756,65.842L55.908,65.842C55.136,65.842 54.797,65.765 54.458,65.58C53.871,65.269 53.377,64.638 52.605,63.65C52.034,62.941 51.432,62.091 51.138,61.736C51.077,61.675 51.046,61.66 50.954,61.66L49.225,61.628C49.163,61.628 49.132,61.66 49.132,61.736L49.132,62.044C49.132,63.31 49.132,64.33 49.194,64.869C49.241,65.255 49.317,65.503 49.734,65.564C49.919,65.593 50.213,65.625 50.336,65.625C50.428,65.625 50.444,65.687 50.444,65.734C50.444,65.795 50.382,65.842 50.228,65.842C49.487,65.842 48.624,65.795 48.561,65.795C48.545,65.795 47.635,65.842 47.218,65.842C47.08,65.842 47.002,65.813 47.002,65.734C47.002,65.687 47.034,65.625 47.11,65.625C47.234,65.625 47.403,65.593 47.527,65.564C47.79,65.503 47.82,65.255 47.881,64.869C47.96,64.33 47.96,63.294 47.96,62.029L47.96,59.714Z" style="fill:rgb(234,126,29);fill-rule:nonzero;"/>
        <path d="M73.708,64.144C73.754,64.607 73.847,65.316 74.402,65.503C74.789,65.625 75.143,65.625 75.283,65.625C75.344,65.625 75.391,65.656 75.391,65.718C75.391,65.795 75.266,65.842 75.112,65.842C74.803,65.842 73.292,65.813 72.797,65.765C72.473,65.734 72.412,65.687 72.412,65.625C72.412,65.58 72.442,65.533 72.503,65.517C72.581,65.503 72.596,65.3 72.566,65.054L71.918,58.418L71.886,58.418L68.615,65.117C68.336,65.687 68.259,65.813 68.136,65.813C68.013,65.813 67.936,65.687 67.673,65.209C67.318,64.56 66.423,62.878 66.084,62.168C65.682,61.335 64.586,59.128 64.354,58.587L64.293,58.587L63.768,64.513C63.752,64.714 63.752,64.96 63.752,65.177C63.752,65.378 63.877,65.503 64.077,65.548C64.308,65.609 64.508,65.625 64.602,65.625C64.648,65.625 64.71,65.671 64.71,65.718C64.71,65.813 64.617,65.842 64.462,65.842C63.954,65.842 63.305,65.795 63.198,65.795C63.074,65.795 62.425,65.842 62.055,65.842C61.917,65.842 61.824,65.813 61.824,65.718C61.824,65.671 61.885,65.625 61.962,65.625C62.071,65.625 62.163,65.609 62.364,65.58C62.811,65.503 62.827,65.023 62.888,64.531L63.877,55.964C63.891,55.824 63.954,55.732 64.031,55.732C64.124,55.732 64.231,55.777 64.308,55.933L68.414,64.082L72.366,55.949C72.426,55.824 72.489,55.732 72.581,55.732C72.674,55.732 72.751,55.839 72.782,56.085L73.708,64.144Z" style="fill:rgb(234,126,29);fill-rule:nonzero;"/>
        <path d="M86.589,61.644C86.651,61.644 86.651,61.613 86.637,61.55L85.293,57.955C85.216,57.753 85.139,57.753 85.062,57.955L83.796,61.55C83.78,61.613 83.796,61.644 83.842,61.644L86.589,61.644ZM85.076,56.179C85.247,55.748 85.309,55.669 85.401,55.669C85.54,55.669 85.586,55.855 85.726,56.148C85.973,56.703 88.148,62.121 88.981,64.113C89.477,65.285 89.846,65.457 90.14,65.548C90.34,65.609 90.541,65.625 90.68,65.625C90.757,65.625 90.85,65.656 90.85,65.734C90.85,65.813 90.695,65.842 90.541,65.842C90.34,65.842 89.337,65.842 88.396,65.813C88.133,65.795 87.916,65.795 87.916,65.718C87.916,65.656 87.947,65.656 88.01,65.625C88.087,65.593 88.226,65.486 88.133,65.269L86.914,62.261C86.883,62.199 86.867,62.183 86.791,62.183L83.657,62.183C83.595,62.183 83.549,62.214 83.518,62.293L82.747,64.39C82.624,64.714 82.546,65.039 82.546,65.269C82.546,65.533 82.778,65.625 83.009,65.625L83.132,65.625C83.24,65.625 83.272,65.671 83.272,65.734C83.272,65.813 83.194,65.842 83.071,65.842C82.747,65.842 82.005,65.795 81.851,65.795C81.713,65.795 81.034,65.842 80.478,65.842C80.309,65.842 80.215,65.813 80.215,65.734C80.215,65.671 80.278,65.625 80.338,65.625C80.432,65.625 80.632,65.609 80.741,65.593C81.358,65.517 81.62,65.054 81.882,64.39L85.076,56.179Z" style="fill:rgb(234,126,29);fill-rule:nonzero;"/>
        <path d="M97.621,64.607C96.294,63.464 95.97,61.968 95.97,60.716C95.97,59.837 96.294,58.31 97.498,57.136C98.316,56.349 99.551,55.732 101.634,55.732C102.174,55.732 102.946,55.777 103.609,55.886C104.119,55.978 104.551,56.072 104.999,56.085C105.138,56.085 105.168,56.148 105.168,56.226C105.168,56.334 105.138,56.488 105.107,56.966C105.091,57.398 105.091,58.125 105.076,58.31C105.061,58.511 104.999,58.587 104.922,58.587C104.828,58.587 104.814,58.496 104.814,58.31C104.814,57.8 104.598,57.275 104.242,56.998C103.764,56.597 102.776,56.273 101.572,56.273C99.828,56.273 98.994,56.734 98.517,57.183C97.513,58.109 97.297,59.281 97.297,60.609C97.297,63.125 99.288,65.363 102.189,65.363C103.209,65.363 103.888,65.285 104.428,64.746C104.721,64.453 104.906,63.896 104.953,63.65C104.982,63.511 104.999,63.464 105.091,63.464C105.153,63.464 105.215,63.558 105.215,63.65C105.215,63.742 105.029,64.884 104.891,65.332C104.814,65.58 104.782,65.625 104.551,65.718C103.995,65.934 102.978,66.012 102.097,66.012C100.061,66.012 98.686,65.533 97.621,64.607Z" style="fill:rgb(234,126,29);fill-rule:nonzero;"/>
        <path d="M113.326,59.714C113.326,57.675 113.326,57.306 113.294,56.89C113.263,56.441 113.185,56.226 112.738,56.164C112.63,56.148 112.398,56.132 112.275,56.132C112.228,56.132 112.168,56.072 112.168,56.025C112.168,55.949 112.228,55.918 112.384,55.918C113.002,55.918 113.88,55.949 113.957,55.949C114.05,55.949 116.89,55.964 117.199,55.949C117.46,55.933 117.709,55.886 117.816,55.871C117.878,55.855 117.939,55.808 118.002,55.808C118.048,55.808 118.064,55.871 118.064,55.933C118.064,56.025 117.986,56.179 117.955,56.55C117.939,56.673 117.91,57.259 117.878,57.414C117.863,57.476 117.816,57.554 117.755,57.554C117.677,57.554 117.646,57.492 117.646,57.382C117.646,57.291 117.63,57.074 117.57,56.921C117.476,56.703 117.337,56.613 116.597,56.519C116.365,56.488 114.791,56.472 114.636,56.472C114.576,56.472 114.56,56.519 114.56,56.613L114.56,60.177C114.56,60.269 114.56,60.316 114.636,60.316C114.806,60.316 116.597,60.316 116.906,60.285C117.23,60.253 117.431,60.238 117.57,60.101C117.662,60.007 117.724,59.929 117.771,59.929C117.816,59.929 117.847,59.96 117.847,60.039C117.847,60.115 117.771,60.332 117.74,60.763C117.709,61.025 117.677,61.519 117.677,61.613C117.677,61.72 117.646,61.859 117.554,61.859C117.492,61.859 117.46,61.812 117.46,61.736C117.46,61.613 117.46,61.472 117.4,61.304C117.353,61.119 117.23,60.964 116.705,60.902C116.335,60.855 114.884,60.841 114.652,60.841C114.576,60.841 114.56,60.886 114.56,60.933L114.56,62.029C114.56,62.476 114.544,64.003 114.56,64.267C114.591,65.148 114.837,65.316 116.181,65.316C116.535,65.316 117.183,65.316 117.539,65.177C117.892,65.023 118.078,64.793 118.156,64.267C118.185,64.113 118.218,64.066 118.294,64.066C118.373,64.066 118.388,64.175 118.388,64.267C118.388,64.359 118.279,65.255 118.201,65.533C118.109,65.874 117.97,65.874 117.445,65.874C116.427,65.874 115.64,65.842 115.084,65.827C114.513,65.795 114.158,65.795 113.957,65.795C113.927,65.795 113.666,65.795 113.371,65.813C113.109,65.827 112.8,65.842 112.584,65.842C112.445,65.842 112.367,65.813 112.367,65.734C112.367,65.687 112.398,65.625 112.476,65.625C112.599,65.625 112.769,65.58 112.892,65.564C113.154,65.517 113.185,65.255 113.248,64.869C113.326,64.33 113.326,63.294 113.326,62.029L113.326,59.714Z" style="fill:rgb(234,126,29);fill-rule:nonzero;"/>
        <path d="M126.441,59.714C126.441,57.675 126.441,57.306 126.412,56.89C126.38,56.472 126.302,56.226 125.855,56.164C125.748,56.148 125.515,56.132 125.392,56.132C125.345,56.132 125.285,56.072 125.285,56.025C125.285,55.949 125.345,55.918 125.502,55.918C126.119,55.918 126.935,55.949 127.06,55.949C127.183,55.949 128.031,55.918 128.433,55.918C128.587,55.918 128.666,55.949 128.666,56.025C128.666,56.072 128.603,56.132 128.541,56.132C128.449,56.132 128.371,56.132 128.201,56.164C127.847,56.226 127.769,56.457 127.738,56.89C127.707,57.306 127.707,57.675 127.707,59.714L127.707,61.55C127.707,63.449 128.125,64.236 128.71,64.761C129.375,65.363 129.96,65.472 130.732,65.472C131.566,65.472 132.369,65.101 132.832,64.544C133.464,63.789 133.603,62.709 133.603,61.365L133.603,59.714C133.603,57.675 133.587,57.306 133.572,56.89C133.556,56.472 133.48,56.226 133.033,56.164C132.925,56.148 132.693,56.132 132.57,56.132C132.507,56.132 132.46,56.072 132.46,56.025C132.46,55.949 132.523,55.918 132.677,55.918C133.279,55.918 134.066,55.949 134.144,55.949C134.236,55.949 134.884,55.918 135.287,55.918C135.441,55.918 135.502,55.949 135.502,56.025C135.502,56.072 135.457,56.132 135.394,56.132C135.302,56.132 135.224,56.132 135.054,56.164C134.683,56.242 134.607,56.457 134.576,56.89C134.544,57.306 134.56,57.675 134.56,59.714L134.56,61.119C134.56,62.539 134.375,64.128 133.294,65.054C132.306,65.903 131.257,66.012 130.455,66.012C130.007,66.012 128.587,65.981 127.63,65.085C126.966,64.468 126.441,63.558 126.441,61.644L126.441,59.714Z" style="fill:rgb(234,126,29);fill-rule:nonzero;"/>
        <path d="M146.054,62.029C146.054,63.294 146.054,64.33 146.115,64.869C146.162,65.255 146.224,65.503 146.64,65.564C146.826,65.593 147.134,65.625 147.257,65.625C147.351,65.625 147.367,65.687 147.367,65.734C147.367,65.795 147.304,65.842 147.15,65.842C146.41,65.842 145.544,65.795 145.468,65.795C145.406,65.795 144.464,65.842 144.064,65.842C143.908,65.842 143.847,65.813 143.847,65.734C143.847,65.687 143.878,65.64 143.955,65.64C144.078,65.64 144.232,65.609 144.357,65.58C144.634,65.517 144.71,65.255 144.757,64.869C144.82,64.33 144.82,63.294 144.82,62.029L144.82,56.519L142.859,56.55C142.009,56.566 141.685,56.658 141.486,56.966C141.332,57.199 141.316,57.291 141.269,57.382C141.238,57.492 141.193,57.507 141.13,57.507C141.099,57.507 141.037,57.476 141.037,57.398C141.037,57.259 141.316,56.085 141.332,55.978C141.361,55.902 141.423,55.732 141.47,55.732C141.564,55.732 141.701,55.839 142.072,55.886C142.459,55.933 142.982,55.949 143.136,55.949L148.261,55.949C148.709,55.949 149.017,55.918 149.234,55.886C149.435,55.855 149.558,55.824 149.619,55.824C149.681,55.824 149.681,55.902 149.681,55.978C149.681,56.38 149.634,57.322 149.634,57.476C149.634,57.585 149.574,57.646 149.511,57.646C149.449,57.646 149.419,57.599 149.404,57.414L149.388,57.275C149.341,56.875 149.048,56.582 147.752,56.55L146.054,56.519L146.054,62.029Z" style="fill:rgb(234,126,29);fill-rule:nonzero;"/>
        <path d="M159.015,62.029C159.015,63.294 159.015,64.33 159.076,64.869C159.123,65.255 159.169,65.503 159.57,65.564C159.771,65.593 160.064,65.625 160.187,65.625C160.265,65.625 160.296,65.687 160.296,65.734C160.296,65.795 160.234,65.842 160.08,65.842C159.324,65.842 158.443,65.795 158.382,65.795C158.306,65.795 157.457,65.842 157.039,65.842C156.9,65.842 156.824,65.813 156.824,65.734C156.824,65.687 156.855,65.625 156.931,65.625C157.054,65.625 157.224,65.593 157.349,65.564C157.611,65.503 157.656,65.255 157.703,64.869C157.765,64.33 157.781,63.294 157.781,62.029L157.781,59.714C157.781,57.675 157.781,57.306 157.75,56.89C157.718,56.441 157.611,56.242 157.318,56.179C157.162,56.148 156.994,56.132 156.9,56.132C156.839,56.132 156.793,56.072 156.793,56.025C156.793,55.949 156.855,55.918 157.009,55.918C157.457,55.918 158.306,55.949 158.382,55.949C158.443,55.949 159.324,55.918 159.74,55.918C159.894,55.918 159.957,55.949 159.957,56.025C159.957,56.072 159.894,56.132 159.849,56.132C159.755,56.132 159.664,56.132 159.509,56.164C159.138,56.242 159.06,56.425 159.031,56.89C159.015,57.306 159.015,57.675 159.015,59.714L159.015,62.029Z" style="fill:rgb(234,126,29);fill-rule:nonzero;"/>
        <path d="M168.337,64.607C167.009,63.464 166.685,61.968 166.685,60.716C166.685,59.837 167.009,58.31 168.212,57.136C169.031,56.349 170.265,55.732 172.349,55.732C172.888,55.732 173.662,55.777 174.326,55.886C174.834,55.978 175.267,56.072 175.714,56.085C175.853,56.085 175.884,56.148 175.884,56.226C175.884,56.334 175.853,56.488 175.822,56.966C175.806,57.398 175.806,58.125 175.791,58.31C175.777,58.511 175.714,58.587 175.636,58.587C175.544,58.587 175.529,58.496 175.529,58.31C175.529,57.8 175.312,57.275 174.959,56.998C174.478,56.597 173.492,56.273 172.289,56.273C170.544,56.273 169.71,56.734 169.232,57.183C168.228,58.109 168.013,59.281 168.013,60.609C168.013,63.125 170.003,65.363 172.906,65.363C173.923,65.363 174.603,65.285 175.144,64.746C175.437,64.453 175.621,63.896 175.668,63.65C175.699,63.511 175.714,63.464 175.806,63.464C175.869,63.464 175.931,63.558 175.931,63.65C175.931,63.742 175.746,64.884 175.607,65.332C175.529,65.58 175.498,65.625 175.267,65.718C174.71,65.934 173.693,66.012 172.812,66.012C170.775,66.012 169.402,65.533 168.337,64.607Z" style="fill:rgb(234,126,29);fill-rule:nonzero;"/>
        <path d="M187.347,61.644C187.408,61.644 187.408,61.613 187.394,61.55L186.05,57.955C185.974,57.753 185.896,57.753 185.82,57.955L184.554,61.55C184.539,61.613 184.554,61.644 184.599,61.644L187.347,61.644ZM185.834,56.179C186.005,55.748 186.066,55.669 186.158,55.669C186.298,55.669 186.343,55.855 186.484,56.148C186.73,56.703 188.906,62.121 189.74,64.113C190.232,65.285 190.603,65.457 190.896,65.548C191.097,65.609 191.298,65.625 191.437,65.625C191.513,65.625 191.607,65.656 191.607,65.734C191.607,65.813 191.453,65.842 191.298,65.842C191.097,65.842 190.095,65.842 189.154,65.813C188.89,65.795 188.673,65.795 188.673,65.718C188.673,65.656 188.705,65.656 188.767,65.625C188.845,65.593 188.984,65.486 188.89,65.269L187.671,62.261C187.64,62.199 187.625,62.183 187.548,62.183L184.416,62.183C184.353,62.183 184.306,62.214 184.275,62.293L183.503,64.39C183.38,64.714 183.304,65.039 183.304,65.269C183.304,65.533 183.535,65.625 183.767,65.625L183.89,65.625C183.998,65.625 184.029,65.671 184.029,65.734C184.029,65.813 183.951,65.842 183.828,65.842C183.503,65.842 182.763,65.795 182.609,65.795C182.47,65.795 181.791,65.842 181.236,65.842C181.066,65.842 180.972,65.813 180.972,65.734C180.972,65.671 181.035,65.625 181.095,65.625C181.189,65.625 181.388,65.609 181.498,65.593C182.115,65.517 182.377,65.054 182.64,64.39L185.834,56.179Z" style="fill:rgb(234,126,29);fill-rule:nonzero;"/>
        <path d="M198.972,62.06C198.972,63.99 199.003,64.777 199.25,65.007C199.466,65.224 199.99,65.316 201.056,65.316C201.765,65.316 202.367,65.3 202.691,64.916C202.861,64.714 202.97,64.437 203.015,64.175C203.031,64.082 203.078,64.003 203.154,64.003C203.216,64.003 203.248,64.066 203.248,64.205C203.248,64.343 203.154,65.132 203.046,65.517C202.955,65.827 202.908,65.874 202.183,65.874C201.209,65.874 200.455,65.858 199.822,65.827C199.203,65.813 198.74,65.795 198.339,65.795C198.277,65.795 198.046,65.795 197.783,65.813C197.505,65.827 197.212,65.842 196.996,65.842C196.857,65.842 196.779,65.813 196.779,65.734C196.779,65.687 196.81,65.625 196.888,65.625C197.011,65.625 197.181,65.593 197.304,65.564C197.568,65.503 197.599,65.255 197.66,64.869C197.738,64.33 197.738,63.294 197.738,62.029L197.738,59.714C197.738,57.675 197.738,57.306 197.707,56.89C197.675,56.441 197.599,56.226 197.15,56.164C197.043,56.148 196.81,56.132 196.687,56.132C196.642,56.132 196.58,56.072 196.58,56.025C196.58,55.949 196.642,55.918 196.796,55.918C197.414,55.918 198.261,55.949 198.339,55.949C198.4,55.949 199.419,55.918 199.835,55.918C199.976,55.918 200.052,55.949 200.052,56.025C200.052,56.072 199.99,56.117 199.945,56.117C199.851,56.117 199.65,56.132 199.498,56.148C199.095,56.226 199.017,56.425 198.988,56.89C198.972,57.306 198.972,57.675 198.972,59.714L198.972,62.06Z" style="fill:rgb(234,126,29);fill-rule:nonzero;"/>
        <path d="M209.603,65.671C209.419,65.578 209.404,65.533 209.404,65.177C209.404,64.529 209.466,64.003 209.48,63.789C209.48,63.648 209.511,63.572 209.587,63.572C209.666,63.572 209.712,63.619 209.712,63.726C209.712,63.835 209.712,64.019 209.757,64.205C209.974,65.162 210.994,65.502 211.904,65.502C213.248,65.502 213.941,64.746 213.941,63.757C213.941,62.816 213.431,62.367 212.228,61.472L211.611,61.011C210.144,59.914 209.666,59.113 209.666,58.201C209.666,56.658 210.884,55.73 212.675,55.73C213.216,55.73 213.755,55.808 214.08,55.886C214.341,55.949 214.451,55.949 214.558,55.949C214.666,55.949 214.697,55.962 214.697,56.039C214.697,56.101 214.636,56.535 214.636,57.429C214.636,57.628 214.621,57.722 214.527,57.722C214.435,57.722 214.419,57.66 214.404,57.552C214.388,57.398 214.281,57.043 214.205,56.904C214.111,56.75 213.664,56.257 212.443,56.257C211.457,56.257 210.638,56.75 210.638,57.675C210.638,58.511 211.056,58.988 212.398,59.898L212.783,60.16C214.435,61.289 215.005,62.199 215.005,63.326C215.005,64.097 214.712,64.929 213.742,65.564C213.169,65.934 212.32,66.028 211.58,66.028C210.947,66.028 210.16,65.934 209.603,65.671Z" style="fill:rgb(234,126,29);fill-rule:nonzero;"/>
        <path d="M126.931,23.882C127.013,26.209 125.193,28.16 122.867,28.242C120.541,28.324 118.589,26.504 118.507,24.178C118.425,21.852 120.244,19.9 122.572,19.818C124.898,19.736 126.849,21.555 126.931,23.882Z" style="fill:rgb(234,126,29);fill-rule:nonzero;"/>
        <path d="M125.179,20.606C125.39,21.106 125.517,21.652 125.537,22.226C125.627,24.753 123.648,26.875 121.121,26.963C120.546,26.984 119.994,26.896 119.48,26.72C120.287,27.69 121.515,28.29 122.873,28.242C125.197,28.16 127.017,26.208 126.935,23.881C126.888,22.525 126.203,21.341 125.179,20.606Z" style="fill:rgb(14,0,79);fill-rule:nonzero;"/>
    </g>
</svg>
